<?xml version="1.0" encoding="utf-8"?>
<!-- Uploaded to: SVG Repo, www.svgrepo.com, Generator: SVG Repo Mixer Tools -->
<svg width="800px" height="800px" viewBox="0 -115.92 444.749 444.749" xmlns="http://www.w3.org/2000/svg"><defs><style>.a{fill:#ffffff;}.b{fill:#7a7473;}.c{fill:#85807f;}.d{fill:#3d8dcc;}.e{fill:#211715;}.f{fill:#f3736f;}.g{fill:#febe69;}</style></defs><path class="a" d="M154.651,160.554a107.339,107.339,0,0,0,17.08,23.953,40.35,40.35,0,0,0,7.667,6.056,33.2,33.2,0,0,0,14.268,4.335,9.673,9.673,0,0,1,.182,7.382c-1.475,3.82-5.612,4.915-8.394,5.626-9.79,2.5-20.642,2.595-31.385,2.595-9.666,0-21.313.306-30.561-2.2-2.767-.748-7.175-2.2-8.65-6.024a11.505,11.505,0,0,1-.653-5.348c12.154-.958,18.911-8.044,22.783-12.425a129.017,129.017,0,0,0,17.081-23.953"/><path class="a" d="M290.843,160.554a107.339,107.339,0,0,0,17.08,23.953,40.35,40.35,0,0,0,7.667,6.056,33.2,33.2,0,0,0,14.268,4.335,9.673,9.673,0,0,1,.182,7.382c-1.475,3.82-5.612,4.915-8.4,5.626-9.789,2.5-20.641,2.595-31.385,2.595-9.665,0-21.312.306-30.56-2.2-2.767-.748-7.175-2.2-8.65-6.024a11.505,11.505,0,0,1-.653-5.348c12.154-.958,18.91-8.044,22.783-12.425a128.965,128.965,0,0,0,17.08-23.953"/><path class="a" d="M39.068,68.264c-10.424,0-21.3,2.794-28.238,10.557C5.345,84.961,2.4,93.461,2.4,102.238a35.2,35.2,0,0,0,9.252,23.091c6.936,7.764,17.219,10.883,27.413,10.883s20.477-3.119,27.413-10.883a35.2,35.2,0,0,0,9.252-23.091c0-8.777-2.942-17.277-8.427-23.417C60.37,71.058,49.492,68.264,39.068,68.264Z"/><path class="a" d="M405.738,68.264c-10.424,0-21.3,2.794-28.238,10.557-5.484,6.14-8.426,14.64-8.426,23.417a35.2,35.2,0,0,0,9.252,23.091c6.936,7.764,17.219,10.883,27.412,10.883s20.477-3.119,27.413-10.883a35.2,35.2,0,0,0,9.252-23.091c0-8.777-2.942-17.277-8.427-23.417C427.04,71.058,416.163,68.264,405.738,68.264Z"/><path class="a" d="M178.239,77.157a5.829,5.829,0,0,1,6.606,2.711,7.959,7.959,0,0,1-.518,7.7,12.635,12.635,0,0,1-6.163,4.941s-.12.044-.244.1a27.316,27.316,0,0,1-5.333,9.4,21.433,21.433,0,0,1-12.061,7.292,34.264,34.264,0,0,1-6.115.619,38.709,38.709,0,0,1-5.643-.544,21.773,21.773,0,0,1-12.62-7.185,27.428,27.428,0,0,1-5.445-9.359,12.567,12.567,0,0,1-6.657-5.369,7.957,7.957,0,0,1-.277-7.712,5.83,5.83,0,0,1,6.687-2.5S128.921,60,154.255,60,178.239,77.157,178.239,77.157Z"/><path class="b" d="M43.375,150.262v-6.295H34.761v30.506h8.614Z"/><path class="b" d="M410.046,150.191v-6.224h-8.614c0,14.034,0,28.271,0,30.515,2.816-.01,5.8-.01,8.615-.01Z"/><path class="c" d="M130.456,77.243a5.889,5.889,0,0,0-4.921.678,29.952,29.952,0,0,1-1.415-9.973,27.842,27.842,0,0,1,12.221-22.026,29.988,29.988,0,0,1,17.618-5.348,30.334,30.334,0,0,1,18.289,5.812A27.178,27.178,0,0,1,183.8,67.948a29.2,29.2,0,0,1-1.288,9.668,5.738,5.738,0,0,0-4.81-.265l-.655-1.231a43.824,43.824,0,0,1-12.731-4.862,54.766,54.766,0,0,1-9.835-7.023,54.81,54.81,0,0,1-9.836,7.023,43.824,43.824,0,0,1-12.731,4.862Z"/><path class="d" d="M154.069,160.554a129.017,129.017,0,0,1-17.081,23.953c-3.872,4.381-10.629,11.467-22.783,12.425a8.028,8.028,0,0,0-.067.813l-6.225-.863c-6.6-1.293-16.407-4.038-16.407-12.535a16.645,16.645,0,0,1,1.008-5.542c3.357-8.15,7.363-11.917,10.682-21.744,2.2-6.511,3.25-13.376,5.618-19.827a49.094,49.094,0,0,1,32.944-30.016h25.1A49.09,49.09,0,0,1,199.8,137.234c2.368,6.451,3.419,13.316,5.618,19.827,3.32,9.827,7.326,13.594,10.683,21.744a16.67,16.67,0,0,1,1.008,5.542c0,8.5-9.806,11.242-16.407,12.535l-6.449-.341a7.033,7.033,0,0,0-.587-1.643,33.2,33.2,0,0,1-14.268-4.335,40.35,40.35,0,0,1-7.667-6.056,107.339,107.339,0,0,1-17.08-23.953"/><path class="b" d="M29.639,136.649v4.68a2.637,2.637,0,0,0,2.637,2.638H45.864a2.634,2.634,0,0,0,2.633-2.638v-5.1"/><path class="b" d="M29.639,67.321V62.642A2.637,2.637,0,0,1,32.276,60H45.864A2.634,2.634,0,0,1,48.5,62.642v5.1"/><path class="e" d="M39.068,65.864c-7.575.025-15.328,1.381-22.03,5.053A32.479,32.479,0,0,0,2.525,88.147a37.22,37.22,0,0,0,12.267,43.229c6.178,4.6,13.921,6.731,21.532,7.159A44.5,44.5,0,0,0,58.572,134.3a35.6,35.6,0,0,0,15.912-16.65,37.293,37.293,0,0,0,2.771-23.857c-1.556-7.553-5.484-14.953-11.58-19.8-6.017-4.782-13.425-7.074-20.991-7.849-1.866-.191-3.74-.275-5.616-.281-3.089-.011-3.093,4.789,0,4.8,6.6.021,13.391,1.086,19.274,4.218A27.429,27.429,0,0,1,71.054,89.611a33.279,33.279,0,0,1,1.033,21.02,32.458,32.458,0,0,1-11.636,16.943,35.408,35.408,0,0,1-18.835,6.172c-6.666.347-13.6-.592-19.629-3.592A31.315,31.315,0,0,1,7.975,115.6,31.89,31.89,0,0,1,5.552,94.867c1.415-6.67,4.741-13.08,10.155-17.361,5.162-4.08,11.855-6.028,18.325-6.618,1.675-.152,3.355-.219,5.036-.224C42.156,70.653,42.162,65.853,39.068,65.864Z"/><path class="e" d="M27.239,136.649c0,1.53-.047,3.067,0,4.6a5.19,5.19,0,0,0,2.23,4.256c1.661,1.145,3.785.865,5.7.865H43.6c1.605,0,3.328.183,4.77-.67a5.2,5.2,0,0,0,2.528-4.4c.061-1.684,0-3.38,0-5.066,0-3.089-4.8-3.094-4.8,0v4.2c0,.256-.005.512,0,.768,0,.045,0,.092,0,.137,0-.128.06.013-.072.188.131-.174-.084.039-.078.035s-.276.026-.083.015c-.6.034-1.221,0-1.826,0H37.066c-1.584,0-3.211.112-4.79,0,.231.017-.1-.02-.084-.015-.326-.165.174.2-.082-.056-.194-.2-.023-.024,0,.021-.178-.322-.078-.03-.073-.333.025-1.511,0-3.024,0-4.535,0-3.088-4.8-3.093-4.8,0Z"/><path class="e" d="M32.039,67.321V63.176c0-.174-.007-.35,0-.525-.014.353.073-.337-.045.011,0,0,.17-.358.075-.156s.292-.245.019-.029c.056-.045.4-.179.085-.055.057-.022.348-.017.171-.038-.293-.036.412.019.48.019H44.707c.3,0,.623.029.92,0,0,0,.391-.024.168-.019-.259.005.409.016.047-.025.048,0,.388.248.1.031.033.025.21.286.124.116a.262.262,0,0,1,.068.272c.059-.276-.039.118-.039.259v4.706c0,3.089,4.8,3.094,4.8,0,0-1.6.013-3.2,0-4.806a5.34,5.34,0,0,0-1.391-3.772C48.142,57.749,46.444,57.6,44.6,57.6H36.506c-1.825,0-3.963-.3-5.724.23a5.1,5.1,0,0,0-3.531,4.554c-.114,1.632-.012,3.3-.012,4.934,0,3.089,4.8,3.094,4.8,0Z"/><path class="e" d="M32.361,144.53v30.117c0,3.089,4.8,3.094,4.8,0V144.53c0-3.088-4.8-3.093-4.8,0Z"/><path class="e" d="M40.975,144.671v29.976c0,3.089,4.8,3.094,4.8,0V144.671c0-3.088-4.8-3.094-4.8,0Z"/><path class="e" d="M31.416,132.073a20.794,20.794,0,0,1-3.049-5.333c-.81-1.729-1.549-3.486-2.191-5.284a49.294,49.294,0,0,1-2.618-10.964A64.932,64.932,0,0,1,25.72,85.029a55.879,55.879,0,0,1,2.325-6.518A21.738,21.738,0,0,1,31.416,72.4c2.081-2.276-1.3-5.68-3.394-3.394-3.038,3.322-4.747,8.13-6.17,12.334a67.088,67.088,0,0,0-3.01,13.788,61.572,61.572,0,0,0,2.388,26.688,69.4,69.4,0,0,0,2.736,6.79,25.773,25.773,0,0,0,4.056,6.859c2.089,2.285,5.476-1.117,3.394-3.394Z"/><path class="e" d="M50.114,135.467a23.266,23.266,0,0,0,3.624-5.934c.943-1.986,1.817-4.011,2.584-6.071A54.891,54.891,0,0,0,59.33,110.9a68.2,68.2,0,0,0-2.467-27.751A65.517,65.517,0,0,0,54.152,75.9a24.525,24.525,0,0,0-4.038-6.889c-2.089-2.285-5.476,1.117-3.394,3.394a19.921,19.921,0,0,1,3.034,5.347,54.562,54.562,0,0,1,2.165,5.668,61.252,61.252,0,0,1,2.624,12.15,58.244,58.244,0,0,1-2.083,24.425A56.743,56.743,0,0,1,50.11,126c-.938,2.056-1.851,4.388-3.39,6.072-2.081,2.276,1.3,5.68,3.394,3.394Z"/><path class="b" d="M18.582,191.007H59.554a.953.953,0,0,0,.953-.952V178.841a4.369,4.369,0,0,0-4.369-4.369H22a4.369,4.369,0,0,0-4.369,4.369v11.214A.953.953,0,0,0,18.582,191.007Z"/><path class="e" d="M18.582,193.407h40.2c2.115,0,3.979-.98,4.121-3.37.109-1.849,0-3.737,0-5.589s.057-3.723,0-5.579a6.9,6.9,0,0,0-6.8-6.8c-.894-.028-1.793,0-2.687,0H25.39c-1.079,0-2.161-.024-3.24,0a6.857,6.857,0,0,0-6.826,5.774,39.725,39.725,0,0,0-.1,5.617c0,2.11-.076,4.236,0,6.345a3.422,3.422,0,0,0,2.715,3.514,2.474,2.474,0,0,0,2.952-1.677,2.419,2.419,0,0,0-1.676-2.952c1.31.211.725,2.057.809.981.026-.334,0-.68,0-1.015v-3.226c0-2.054-.01-4.109,0-6.163.015-2.9,2.834-2.4,4.9-2.4h30.5c1.118,0,2.246.166,2.6,1.447.375,1.358.074,3.147.074,4.541v6.474c0,.13-.072.543,0,.657-.073-.115,1.677-1.228,1.375-1.384a2.386,2.386,0,0,0-.773,0H42.056c-7.673,0-15.364-.152-23.036,0-.146,0-.292,0-.438,0C15.493,188.607,15.488,193.407,18.582,193.407Z"/><path class="b" d="M396.309,136.649v4.68a2.637,2.637,0,0,0,2.638,2.638h13.587a2.634,2.634,0,0,0,2.634-2.638v-5.1"/><path class="b" d="M396.309,67.321V62.642A2.637,2.637,0,0,1,398.947,60h13.587a2.634,2.634,0,0,1,2.634,2.639v5.1"/><path class="e" d="M405.738,65.864c-7.574.025-15.328,1.381-22.029,5.053A32.475,32.475,0,0,0,369.2,88.147a37.216,37.216,0,0,0,12.267,43.229c6.177,4.6,13.92,6.731,21.531,7.159a44.5,44.5,0,0,0,22.248-4.236,35.606,35.606,0,0,0,15.913-16.65,37.3,37.3,0,0,0,2.771-23.857c-1.556-7.553-5.484-14.953-11.58-19.8-6.018-4.782-13.425-7.074-20.991-7.849-1.867-.191-3.741-.275-5.617-.281-3.089-.011-3.093,4.789,0,4.8,6.6.021,13.392,1.086,19.275,4.218a27.433,27.433,0,0,1,12.712,14.729,33.293,33.293,0,0,1,1.033,21.02,32.454,32.454,0,0,1-11.637,16.943,35.4,35.4,0,0,1-18.834,6.172c-6.667.347-13.6-.592-19.63-3.592A31.32,31.32,0,0,1,374.645,115.6a31.9,31.9,0,0,1-2.423-20.728c1.415-6.67,4.741-13.08,10.156-17.361,5.161-4.08,11.854-6.028,18.325-6.618,1.674-.152,3.354-.219,5.035-.224C408.827,70.653,408.833,65.853,405.738,65.864Z"/><path class="e" d="M393.909,136.649c0,1.53-.047,3.067,0,4.6a5.193,5.193,0,0,0,2.23,4.256c1.662,1.145,3.785.865,5.7.865h8.433c1.606,0,3.328.183,4.771-.67a5.2,5.2,0,0,0,2.528-4.4c.06-1.684,0-3.38,0-5.066,0-3.089-4.8-3.094-4.8,0v4.2c0,.256,0,.512,0,.768,0,.045,0,.092,0,.137.005-.128.059.013-.073.188.131-.174-.084.039-.078.035s-.275.026-.083.015c-.6.034-1.22,0-1.825,0h-6.972c-1.584,0-3.212.112-4.79,0,.231.017-.1-.02-.084-.015-.326-.165.174.2-.083-.056-.194-.2-.022-.024,0,.021-.179-.322-.079-.03-.074-.333.026-1.511,0-3.024,0-4.535,0-3.088-4.8-3.093-4.8,0Z"/><path class="e" d="M398.709,67.321V63.176c0-.174-.007-.35,0-.525-.014.353.074-.337-.044.011l.074-.156c-.091.193.292-.245.019-.029.056-.045.4-.179.086-.055.057-.022.347-.017.171-.038-.293-.036.412.019.479.019h11.884c.3,0,.622.029.92,0,0,0,.391-.024.168-.019-.26.005.409.016.047-.025.047,0,.387.248.1.031.032.025.21.286.124.116a.265.265,0,0,1,.067.272c.059-.276-.038.118-.038.259v4.706c0,3.089,4.8,3.094,4.8,0,0-1.6.012-3.2,0-4.806a5.34,5.34,0,0,0-1.391-3.772c-1.364-1.416-3.063-1.562-4.912-1.562h-8.088c-1.826,0-3.964-.3-5.724.23a5.1,5.1,0,0,0-3.532,4.554c-.114,1.632-.012,3.3-.012,4.934,0,3.089,4.8,3.094,4.8,0Z"/><path class="e" d="M399.031,144.671v30.117c0,3.089,4.8,3.094,4.8,0V144.671c0-3.088-4.8-3.094-4.8,0Z"/><path class="e" d="M407.646,144.671v29.976c0,3.089,4.8,3.094,4.8,0V144.671c0-3.088-4.8-3.094-4.8,0Z"/><path class="e" d="M398.087,132.073a20.794,20.794,0,0,1-3.049-5.333c-.811-1.729-1.549-3.486-2.192-5.284a49.4,49.4,0,0,1-2.618-10.964,64.932,64.932,0,0,1,2.163-25.463,56.058,56.058,0,0,1,2.324-6.518,21.74,21.74,0,0,1,3.372-6.109c2.081-2.276-1.305-5.68-3.394-3.394-3.038,3.322-4.748,8.13-6.17,12.334a66.957,66.957,0,0,0-3.01,13.788,61.571,61.571,0,0,0,2.387,26.688,69.655,69.655,0,0,0,2.736,6.79,25.75,25.75,0,0,0,4.057,6.859c2.088,2.285,5.475-1.117,3.394-3.394Z"/><path class="e" d="M416.784,135.467a23.3,23.3,0,0,0,3.625-5.934c.943-1.986,1.817-4.011,2.584-6.071A54.891,54.891,0,0,0,426,110.9a68.187,68.187,0,0,0-2.468-27.751,65.511,65.511,0,0,0-2.71-7.249,24.5,24.5,0,0,0-4.039-6.889c-2.089-2.285-5.476,1.117-3.394,3.394a19.921,19.921,0,0,1,3.034,5.347,54.568,54.568,0,0,1,2.166,5.668,61.25,61.25,0,0,1,2.623,12.15,58.244,58.244,0,0,1-2.082,24.425,56.959,56.959,0,0,1-2.35,6.009c-.939,2.056-1.851,4.388-3.391,6.072-2.081,2.276,1.305,5.68,3.394,3.394Z"/><path class="b" d="M385.252,191.007h40.973a.952.952,0,0,0,.952-.952V178.841a4.369,4.369,0,0,0-4.369-4.369h-34.14a4.369,4.369,0,0,0-4.368,4.369v11.214A.952.952,0,0,0,385.252,191.007Z"/><path class="e" d="M385.252,193.407h40.2c2.115,0,3.98-.98,4.121-3.37.109-1.849,0-3.737,0-5.589s.058-3.723,0-5.579a6.9,6.9,0,0,0-6.8-6.8c-.893-.028-1.793,0-2.687,0h-28.03c-1.079,0-2.162-.024-3.241,0A6.856,6.856,0,0,0,382,177.846a39.576,39.576,0,0,0-.1,5.617c0,2.11-.077,4.236,0,6.345a3.422,3.422,0,0,0,2.714,3.514,2.475,2.475,0,0,0,2.953-1.677,2.42,2.42,0,0,0-1.677-2.952c1.311.211.726,2.057.81.981.026-.334,0-.68,0-1.015v-3.226c0-2.054-.011-4.109,0-6.163.015-2.9,2.833-2.4,4.9-2.4h30.5c1.118,0,2.246.166,2.6,1.447.375,1.358.073,3.147.073,4.541v6.474c0,.13-.072.543,0,.657-.072-.115,1.678-1.228,1.376-1.384a2.386,2.386,0,0,0-.773,0H408.727c-7.674,0-15.364-.152-23.036,0-.146,0-.293,0-.439,0C382.164,188.607,382.159,193.407,385.252,193.407Z"/><path class="e" d="M166.218,109.532a46.705,46.705,0,0,1,31.659,29.443c1.546,4.511,2.52,9.187,3.755,13.786a67.288,67.288,0,0,0,4.817,12.934c1.633,3.238,3.6,6.292,5.3,9.493,1.639,3.086,3.347,6.538,2.925,10.1-.356,3.007-2.591,4.978-5.272,6.38a34.71,34.71,0,0,1-9.335,2.9,2.425,2.425,0,0,0-1.677,2.953,2.45,2.45,0,0,0,2.953,1.676c6.086-1.2,13.642-3.286,16.78-9.22,4.012-7.586-1.38-15.834-5.13-22.327a62.313,62.313,0,0,1-5.405-11.671c-1.591-4.825-2.577-9.821-3.967-14.7a52.745,52.745,0,0,0-12.474-22.241,51.373,51.373,0,0,0-23.65-14.13c-2.986-.8-4.26,3.825-1.276,4.628Z"/><path class="e" d="M152.579,161.765a121.529,121.529,0,0,0,12.659,19.068c4.483,5.445,9.667,10.635,16.237,13.478a39.28,39.28,0,0,0,12.191,2.987l-2.072-1.189a6.7,6.7,0,0,1-.766,6.628c-1.327,1.577-3.466,2.183-5.378,2.69a88.987,88.987,0,0,1-19.848,2.532c-6.643.225-13.307.191-19.953.146a96.4,96.4,0,0,1-18.741-1.462,22.215,22.215,0,0,1-7.414-2.52c-2.528-1.587-3.2-4.338-2.889-7.191l-2.4,2.4a34.11,34.11,0,0,0,19.837-8.417,58.542,58.542,0,0,0,5.528-5.719c2.972-3.415,5.809-6.952,8.464-10.618a120.529,120.529,0,0,0,8.107-12.813c1.485-2.711-2.659-5.136-4.145-2.423a125.06,125.06,0,0,1-14.229,20.6c-3.638,4.307-7.378,8.487-12.329,11.23a28.094,28.094,0,0,1-11.233,3.356,2.487,2.487,0,0,0-2.4,2.4,11.634,11.634,0,0,0,6.676,12.1c4.291,2.028,9.163,2.743,13.837,3.245a152.2,152.2,0,0,0,16.347.634c5.8,0,11.614.043,17.414-.17a103.027,103.027,0,0,0,17.358-1.906c4.278-.9,9.026-2.024,11.672-5.829a11.347,11.347,0,0,0,1.751-7.132,10.371,10.371,0,0,0-.958-3.843c-.845-1.7-2.482-1.506-4.109-1.742a30.25,30.25,0,0,1-12.573-4.682c-4.926-3.29-8.92-7.878-12.489-12.56a123.7,123.7,0,0,1-10.007-15.706c-1.483-2.711-5.629-.291-4.145,2.423Z"/><path class="e" d="M141.12,104.9a51.668,51.668,0,0,0-34.935,32.574c-1.692,4.875-2.7,9.946-4.077,14.912a59.673,59.673,0,0,1-5.023,12.667c-3.624,6.673-9.658,14.285-7.6,22.366,1.969,7.724,10.915,10.415,17.788,11.773a2.462,2.462,0,0,0,2.952-1.676,2.423,2.423,0,0,0-1.676-2.953,38.564,38.564,0,0,1-8.271-2.379,16.108,16.108,0,0,1-3.572-2.134,8.137,8.137,0,0,1-2.239-2.816c-1.327-3.063-.215-6.666,1.159-9.58,1.554-3.294,3.5-6.373,5.259-9.555a63.215,63.215,0,0,0,5.058-11.741c1.448-4.624,2.406-9.382,3.744-14.036a47.429,47.429,0,0,1,11.3-20.031,46.566,46.566,0,0,1,21.4-12.763c2.98-.8,1.715-5.434-1.276-4.628Z"/><path class="e" d="M178.877,79.471c.2-.055.4-.1.6-.139-.535.111.076.012.185.01.207,0,.413.01.62.023-.343-.021-.156-.026.079.025a5.668,5.668,0,0,1,.6.162c.2.064.412.17.1.023.188.09.373.185.551.292.055.033.59.422.195.1a5.4,5.4,0,0,1,.461.421c.08.081.443.556.16.154.1.144.2.291.282.444.057.1.109.2.158.3q-.1-.28-.015-.043a6.292,6.292,0,0,1,.331,1.235c-.077-.468.009.262.011.3.009.238.007.476,0,.714,0,.093-.089.762-.017.315-.032.2-.074.395-.12.59-.056.235-.121.466-.2.7-.038.116-.181.516-.058.212a7.4,7.4,0,0,1-.684,1.254s-.423.6-.19.294c-.147.194-.31.378-.473.559a12.524,12.524,0,0,1-.96.954c-.154.137-.31.272-.47.4.284-.229-.247.178-.3.218a12.909,12.909,0,0,1-1.252.768c-.212.115-.429.219-.647.324-.445.214.2-.068-.3.12a2.455,2.455,0,0,0-1.676,2.952,2.428,2.428,0,0,0,2.952,1.677c4.927-1.859,9.263-6.258,9.208-11.811a8.514,8.514,0,0,0-3.448-6.942,8.29,8.29,0,0,0-6.961-1.228,2.4,2.4,0,0,0,1.276,4.628Z"/><path class="e" d="M131.094,74.929A8.282,8.282,0,0,0,124.105,76a8.566,8.566,0,0,0-3.6,6.869c-.229,5.564,4.063,10.036,8.907,12.039a2.4,2.4,0,0,0,2.952-1.676,2.474,2.474,0,0,0-1.676-2.952c.4.165-.281-.143-.291-.148-.215-.108-.428-.223-.637-.344a12.794,12.794,0,0,1-1.127-.734q-.2-.146-.005,0c-.1-.077-.192-.156-.286-.236-.157-.134-.312-.27-.462-.411a13.9,13.9,0,0,1-1.019-1.069c-.483-.555.189.32-.223-.283-.135-.2-.272-.4-.4-.6-.1-.169-.2-.341-.294-.516-.056-.105-.109-.212-.159-.32q.1.258.007.022a8.06,8.06,0,0,1-.381-1.266c-.006-.025-.116-.763-.068-.312-.025-.238-.04-.478-.045-.717s.013-.476.019-.714c.011-.438-.032.07.018-.18a6.408,6.408,0,0,1,.347-1.232c-.171.408.112-.181.158-.259.033-.057.422-.588.105-.2a5.579,5.579,0,0,1,.425-.458c.085-.081.564-.434.156-.154.143-.1.288-.192.438-.279.062-.037.627-.319.364-.2-.285.127.239-.079.3-.1.2-.062.4-.106.6-.154.614-.144-.444-.006.185-.02.208-.005.413,0,.62,0,.5,0-.349-.122.182.016.2.052.4.1.6.158a2.425,2.425,0,0,0,2.953-1.676,2.452,2.452,0,0,0-1.677-2.953Z"/><path class="e" d="M175.606,91.969c-2.218,6.584-7.244,12.6-14.068,14.6-7.226,2.117-16.014,1-21.74-4.121a24.622,24.622,0,0,1-6.789-10.289c-1.007-2.9-5.646-1.653-4.629,1.276,2.893,8.333,9.315,15.635,18.068,17.893,8.892,2.294,18.91.8,25.793-5.521a29.972,29.972,0,0,0,7.994-12.56c.988-2.934-3.646-4.193-4.629-1.276Z"/><path class="e" d="M160.23,82.939a4.81,4.81,0,0,1,1.189-3.866A3.674,3.674,0,0,1,163.935,78a3.937,3.937,0,0,1,3.3,1.545,4.836,4.836,0,0,1-.1,5.642,3.757,3.757,0,0,1-5.063.826A4.126,4.126,0,0,1,160.23,82.939Z"/><path class="e" d="M141.048,82.939a4.817,4.817,0,0,1,1.19-3.866A3.671,3.671,0,0,1,144.754,78a3.938,3.938,0,0,1,3.3,1.545,4.838,4.838,0,0,1-.1,5.642,3.756,3.756,0,0,1-5.063.826A4.126,4.126,0,0,1,141.048,82.939Z"/><path class="e" d="M127.526,76.175a25.948,25.948,0,0,1,2.548-20.2,26.908,26.908,0,0,1,12.368-10.751c11.72-5.062,26.852-1.542,34.3,8.923,4.6,6.462,5.609,14.441,3.671,22.031-.764,3,3.864,4.272,4.629,1.276a31.448,31.448,0,0,0-2.792-23.607A31.573,31.573,0,0,0,167.4,40.89,34.7,34.7,0,0,0,143.3,39.8a32.417,32.417,0,0,0-16.089,11.816c-5.4,7.453-6.65,17.046-4.315,25.837.793,2.983,5.424,1.718,4.629-1.276Z"/><path class="e" d="M132.552,78.434a52.922,52.922,0,0,0,23.626-12.5h-3.394a52.919,52.919,0,0,0,23.625,12.5c3.011.66,4.3-3.966,1.276-4.628a47.994,47.994,0,0,1-21.507-11.268,2.466,2.466,0,0,0-3.394,0,48,48,0,0,1-21.508,11.268c-3.016.661-1.739,5.289,1.276,4.628Z"/><path class="e" d="M192.091,144.549a52.436,52.436,0,0,0-10.584-10c-4.15-2.952-8.675-4.991-13.838-5.125-3.09-.08-3.088,4.72,0,4.8,4.449.115,8.175,2.13,11.7,4.677a48.209,48.209,0,0,1,9.323,9.044,2.416,2.416,0,0,0,3.394,0,2.457,2.457,0,0,0,0-3.394Z"/><path class="e" d="M119.918,147.943a48.152,48.152,0,0,1,9.323-9.044c3.53-2.547,7.256-4.562,11.7-4.677,3.083-.08,3.095-4.88,0-4.8-5.163.134-9.688,2.174-13.838,5.125a52.467,52.467,0,0,0-10.585,10,2.475,2.475,0,0,0,0,3.394,2.418,2.418,0,0,0,3.4,0Z"/><path class="a" d="M149.5,131.012c-.529-7.8-1.434-19.272-1.837-27.7a2.964,2.964,0,0,1,.263-1.716,2.919,2.919,0,0,1,2.181-1.087,68.253,68.253,0,0,1,8.3,0,2.923,2.923,0,0,1,2.182,1.087,2.956,2.956,0,0,1,.262,1.716c-.4,8.423-1.377,19.893-1.906,27.7l-.333,4.173-8.708-.131Z"/><path class="e" d="M151.9,131.012c-.323-4.749-.679-9.5-1.01-14.244q-.26-3.739-.5-7.48-.1-1.68-.2-3.36-.046-.847-.09-1.7c-.015-.3-.036-.61-.045-.914l-.013-.356q.089-.635-.1-.149c-.644.211.865.006.292.088.236-.034.479-.037.716-.049.9-.047,1.8-.056,2.693-.062a31.822,31.822,0,0,1,4.632.111c-.435-.063.292.14.4.122-.552.09-.016-.8-.212-.061a4.735,4.735,0,0,0-.04.9q-.092,1.812-.2,3.624-.224,3.7-.494,7.39c-.386,5.379-.817,10.755-1.184,16.135a2.4,2.4,0,0,0,4.8,0c.367-5.38.8-10.756,1.184-16.135.2-2.853.4-5.707.563-8.563.156-2.7.722-5.9-2.075-7.476-1.745-.982-4.06-.833-6-.848a33.952,33.952,0,0,0-5.55.21,5.065,5.065,0,0,0-3.616,2.19,6.754,6.754,0,0,0-.535,4.026c.142,2.791.317,5.58.5,8.369.4,6.077.867,12.15,1.281,18.227a2.457,2.457,0,0,0,2.4,2.4,2.42,2.42,0,0,0,2.4-2.4Z"/><path class="a" d="M163.16,130.669a8.126,8.126,0,0,0-6.161,2.3,7.638,7.638,0,0,0,.18,10.147,8.72,8.72,0,0,0,11.961,0,7.639,7.639,0,0,0,.181-10.147A8.129,8.129,0,0,0,163.16,130.669Z"/><path class="a" d="M145.35,130.669a8.128,8.128,0,0,0-6.161,2.3,7.638,7.638,0,0,0,.18,10.147,8.721,8.721,0,0,0,11.962,0,7.641,7.641,0,0,0,.18-10.147A8.129,8.129,0,0,0,145.35,130.669Z"/><path class="e" d="M163.16,128.269a11.962,11.962,0,0,0-5.887,1.433,9.144,9.144,0,0,0-3.912,4.853,10.067,10.067,0,0,0,3.517,11.475,11.512,11.512,0,0,0,11.53.643c3.915-1.986,5.7-6.6,4.924-10.774a9.279,9.279,0,0,0-3.688-5.806,11.316,11.316,0,0,0-6.484-1.824,2.4,2.4,0,0,0,0,4.8c.327,0,.651.019.978.038.481.029.209.013.093,0,.161.021.323.051.483.083a9.179,9.179,0,0,1,1.058.274c.049.016.516.185.278.089-.218-.088.317.154.365.18a5.185,5.185,0,0,1,.807.507c-.275-.221.032.05.064.085.11.116.226.23.337.346.321.334.151.183.084.09.095.132.185.272.27.412s.159.289.242.433c.237.41.014-.073.155.345a8.953,8.953,0,0,1,.279.975c.035.164.073.337.093.5-.042-.34,0,.092,0,.133a4.313,4.313,0,0,1-.2,1.9c-.048.161-.1.323-.163.479.114-.295-.04.084-.059.12a9.694,9.694,0,0,1-.5.869c-.09.136-.183.279-.285.407.2-.253-.066.06-.093.087-.117.119-.226.244-.348.36-.007.006-.566.455-.275.247a8.491,8.491,0,0,1-.835.5c-.045.024-.415.188-.093.055-.149.061-.306.114-.459.163-.312.1-.629.172-.949.244-.463.1-.21.047-.092.03-.243.034-.493.049-.738.061-.329.016-.66.015-.989,0-.164-.007-.328-.021-.493-.034-.064-.006-.462-.077-.095-.012a9.259,9.259,0,0,1-.957-.218c-.157-.046-.309-.1-.465-.149-.611-.2.237.174-.321-.14a4.777,4.777,0,0,1-2.276-2.358,5.306,5.306,0,0,1-.417-3.121,4.668,4.668,0,0,1,.7-1.879,3.657,3.657,0,0,1,1.05-1.136,6.462,6.462,0,0,1,3.768-.966,2.4,2.4,0,1,0,0-4.8Z"/><path class="e" d="M145.35,128.269a11.964,11.964,0,0,0-5.887,1.433,9.149,9.149,0,0,0-3.912,4.853,10.066,10.066,0,0,0,3.518,11.475,11.51,11.51,0,0,0,11.529.643c3.915-1.986,5.7-6.6,4.924-10.774a9.274,9.274,0,0,0-3.687-5.806,11.32,11.32,0,0,0-6.485-1.824,2.4,2.4,0,0,0,0,4.8c.327,0,.651.019.978.038.481.029.209.013.093,0,.161.021.323.051.483.083a9.2,9.2,0,0,1,1.059.274c.048.016.516.185.277.089-.218-.088.317.154.366.18a5.223,5.223,0,0,1,.806.507c-.275-.221.032.05.065.085.109.116.226.23.337.346.321.334.15.183.083.09.1.132.186.272.27.412s.16.289.242.433c.237.41.015-.073.156.345a9.178,9.178,0,0,1,.278.975c.036.164.073.337.094.5-.043-.34,0,.092,0,.133a4.328,4.328,0,0,1-.2,1.9c-.049.161-.1.323-.163.479.114-.295-.041.084-.06.12a9.457,9.457,0,0,1-.5.869c-.089.136-.183.279-.285.407.2-.253-.066.06-.092.087-.118.119-.227.244-.348.36-.007.006-.567.455-.275.247a8.61,8.61,0,0,1-.835.5c-.045.024-.416.188-.093.055-.149.061-.307.114-.46.163-.312.1-.629.172-.949.244-.463.1-.21.047-.091.03-.243.034-.494.049-.739.061-.329.016-.659.015-.988,0-.165-.007-.329-.021-.493-.034-.065-.006-.463-.077-.1-.012a9.182,9.182,0,0,1-.956-.218c-.158-.046-.31-.1-.466-.149-.61-.2.237.174-.321-.14a4.771,4.771,0,0,1-2.275-2.358,5.315,5.315,0,0,1-.418-3.121,4.668,4.668,0,0,1,.7-1.879,3.681,3.681,0,0,1,1.05-1.136,6.464,6.464,0,0,1,3.768-.966,2.4,2.4,0,0,0,0-4.8Z"/><path class="d" d="M171.059,41.938c-1.228-2.078-3.614-3.284-6.233-3.824-.953-.2-1.781-.257-2.874-.434h-.5V8.385a5.972,5.972,0,0,0-5.972-5.972h-2.007a5.971,5.971,0,0,0-5.971,5.972v29.3h-.5c-1.044.162-1.819.3-2.875.434a8.534,8.534,0,0,0-6.233,3.824,6.767,6.767,0,0,0-.864,4.384,3,3,0,0,0,3.069,2.4h28.748a3,3,0,0,0,3.069-2.4A6.774,6.774,0,0,0,171.059,41.938Z"/><path class="e" d="M161.314,39.995c2.094.319,4.24.489,6.091,1.618a4.623,4.623,0,0,1,1.582,1.536c.378.621.949,2.084.57,2.805-.327.621-1.856.372-2.455.372H152.864c-4.1,0-8.2-.058-12.3,0a2.018,2.018,0,0,1-.908-.087c-.5-.293-.32-1.164-.232-1.647a4.47,4.47,0,0,1,1.3-2.383c1.533-1.529,3.656-1.7,5.683-2.02.184-.028,1.115-.133.62-.109.056,0,.113,0,.169,0,.283-.007.566,0,.849,0h13.9c3.088,0,3.093-4.8,0-4.8h-13.97c-3.628,0-7.612.817-10.378,3.283-3.938,3.51-4.575,12.014,2.15,12.545,1.235.1,2.5.018,3.735.018h24.033c.442,0,.888.016,1.33,0a5.5,5.5,0,0,0,5.517-5.213,9.081,9.081,0,0,0-3.679-7.842c-2.407-1.813-5.2-2.263-8.1-2.7a2.478,2.478,0,0,0-2.953,1.676A2.419,2.419,0,0,0,161.314,39.995Z"/><path class="e" d="M149.906,37.765V9.1c0-2.282,1.125-4.222,3.652-4.291,1.432-.039,3-.171,4.188.786a3.693,3.693,0,0,1,1.31,2.92c.016,4.727,0,9.455,0,14.183V37.765c0,3.089,4.8,3.094,4.8,0,0-9.744.168-19.5,0-29.246A8.518,8.518,0,0,0,155.45.013a11.972,11.972,0,0,0-5.659.866,8.331,8.331,0,0,0-4.559,6.171,33.044,33.044,0,0,0-.126,4.985v25.73c0,3.089,4.8,3.094,4.8,0Z"/><path class="c" d="M259.552,102.6c-3.443-1.375-5.936-4.756-7.483-8.95a15.444,15.444,0,0,1-.915-3.6c-.653-5.8.769-11.886,2.016-17.526a65.48,65.48,0,0,1,5.921-16.277,32.488,32.488,0,0,1,6.7-9.108,25.939,25.939,0,0,1,12.6-6.907,63.491,63.491,0,0,1,23.471,0,28.616,28.616,0,0,1,13.3,7.137c2.488,2.311,4.145,4.818,6.24,8.813a65.368,65.368,0,0,1,5.684,16.342c1.246,5.64,2.668,11.728,2.015,17.526a15.4,15.4,0,0,1-.915,3.6c-1.546,4.194-4.04,7.575-7.482,8.95Z"/><path class="a" d="M314.356,92.509a12.635,12.635,0,0,0,6.163-4.941,7.959,7.959,0,0,0,.518-7.7,5.8,5.8,0,0,0-7.272-2.465c-.36-.613-.752-1.283-.752-1.283a43.824,43.824,0,0,1-12.731-4.862,54.766,54.766,0,0,1-9.835-7.023,54.81,54.81,0,0,1-9.836,7.023A43.824,43.824,0,0,1,267.88,76.12l-1.232,1.123a5.83,5.83,0,0,0-6.687,2.5,7.956,7.956,0,0,0,.276,7.712,12.573,12.573,0,0,0,6.658,5.369,27.428,27.428,0,0,0,5.445,9.359,21.773,21.773,0,0,0,12.62,7.185,38.7,38.7,0,0,0,5.642.544,34.265,34.265,0,0,0,6.116-.619,21.433,21.433,0,0,0,12.061-7.292,27.316,27.316,0,0,0,5.333-9.4"/><path class="f" d="M290.26,160.554a128.965,128.965,0,0,1-17.08,23.953c-3.873,4.381-10.629,11.467-22.783,12.425a8.027,8.027,0,0,0-.068.813l-6.224-.863c-6.6-1.293-16.407-4.038-16.407-12.535a16.645,16.645,0,0,1,1.008-5.542c3.357-8.15,7.363-11.917,10.682-21.744,2.2-6.511,3.25-13.376,5.618-19.827a49.092,49.092,0,0,1,32.944-30.016h25.1a49.09,49.09,0,0,1,32.944,30.016c2.368,6.451,3.419,13.316,5.618,19.827,3.319,9.827,7.326,13.594,10.683,21.744a16.669,16.669,0,0,1,1.007,5.542c0,8.5-9.806,11.242-16.406,12.535l-6.449-.341a7.079,7.079,0,0,0-.587-1.643,33.2,33.2,0,0,1-14.268-4.335,40.35,40.35,0,0,1-7.667-6.056,107.339,107.339,0,0,1-17.08-23.953"/><path class="e" d="M260.19,100.287a10.289,10.289,0,0,1-4.572-4.621,17.022,17.022,0,0,1-2.227-8.381,46.026,46.026,0,0,1,1.113-9.591c.641-3.153,1.317-6.31,2.247-9.392,3-9.927,8.483-20.9,18.855-24.716,4.269-1.572,8.593-1.863,13.142-2.021a50.132,50.132,0,0,1,12.308.941,26.777,26.777,0,0,1,12.908,7.042c3.894,3.837,6.4,9.306,8.2,14.388a86.707,86.707,0,0,1,2.847,10.345A68.678,68.678,0,0,1,326.8,84.96a18.737,18.737,0,0,1-1.624,9.68c-1.1,2.241-2.717,4.64-5.111,5.647a2.482,2.482,0,0,0-1.677,2.952,2.415,2.415,0,0,0,2.953,1.677c5.822-2.45,9.469-8.73,10.159-14.866.793-7.045-1.093-14.49-2.844-21.273a58.909,58.909,0,0,0-8.054-18.7,30.1,30.1,0,0,0-13.5-10.674c-4.856-1.971-10.091-2.422-15.285-2.629a57.628,57.628,0,0,0-7.1.237,47.567,47.567,0,0,0-6.958.9,30.063,30.063,0,0,0-14.668,8.51c-4.612,4.742-7.578,10.975-9.81,17.127a86.049,86.049,0,0,0-3.111,11.489,56.505,56.505,0,0,0-1.572,12.241c.068,7.074,3.506,14.763,10.323,17.631a2.414,2.414,0,0,0,2.952-1.677,2.462,2.462,0,0,0-1.676-2.952Z"/><path class="e" d="M268.518,78.434a52.922,52.922,0,0,0,23.626-12.5H288.75a52.919,52.919,0,0,0,23.625,12.5c3.011.66,4.3-3.966,1.276-4.628a47.994,47.994,0,0,1-21.507-11.268,2.466,2.466,0,0,0-3.394,0,48,48,0,0,1-21.508,11.268c-3.016.661-1.739,5.289,1.276,4.628Z"/><path class="e" d="M315.069,79.471c.2-.055.4-.1.6-.139-.535.111.076.012.184.01.208,0,.414.01.621.023-.343-.021-.156-.026.079.025a5.733,5.733,0,0,1,.6.162c.2.064.412.17.1.023.188.09.373.185.551.292.055.033.589.422.195.1a5.555,5.555,0,0,1,.461.421c.08.081.442.556.16.154.1.144.195.291.282.444.057.1.109.2.158.3q-.1-.28-.015-.043a6.292,6.292,0,0,1,.331,1.235c-.077-.468.009.262.01.3.01.238.008.476,0,.714,0,.093-.089.762-.017.315-.032.2-.074.395-.12.59-.056.235-.121.466-.2.7-.038.116-.181.516-.058.212a7.4,7.4,0,0,1-.684,1.254s-.423.6-.19.294c-.148.194-.31.378-.473.559a12.524,12.524,0,0,1-.96.954c-.154.137-.31.272-.47.4.283-.229-.247.178-.305.218a12.909,12.909,0,0,1-1.252.768c-.212.115-.429.219-.647.324-.445.214.2-.068-.3.12a2.454,2.454,0,0,0-1.676,2.952,2.428,2.428,0,0,0,2.952,1.677c4.927-1.859,9.263-6.258,9.208-11.811a8.514,8.514,0,0,0-3.448-6.942,8.29,8.29,0,0,0-6.961-1.228,2.4,2.4,0,0,0,1.276,4.628Z"/><path class="e" d="M267.286,74.929A8.282,8.282,0,0,0,260.3,76a8.566,8.566,0,0,0-3.6,6.869c-.229,5.564,4.063,10.036,8.907,12.039a2.4,2.4,0,0,0,2.952-1.676,2.474,2.474,0,0,0-1.676-2.952c.4.165-.281-.143-.291-.148-.215-.108-.428-.223-.637-.344a12.794,12.794,0,0,1-1.127-.734q-.2-.146,0,0c-.1-.077-.192-.156-.286-.236-.157-.134-.312-.27-.462-.411a14.107,14.107,0,0,1-1.02-1.069c-.482-.555.19.32-.222-.283-.135-.2-.272-.4-.4-.6-.1-.169-.2-.341-.294-.516-.056-.105-.109-.212-.16-.32.066.172.068.179.008.022a8.171,8.171,0,0,1-.382-1.266c0-.025-.115-.763-.068-.312-.025-.238-.039-.478-.044-.717s.012-.476.019-.714c.011-.438-.032.07.018-.18a6.408,6.408,0,0,1,.347-1.232c-.171.408.112-.181.157-.259.034-.057.423-.588.106-.2a5.409,5.409,0,0,1,.425-.458c.085-.081.564-.434.156-.154.143-.1.287-.192.438-.279.062-.037.627-.319.364-.2-.285.127.239-.079.3-.1.2-.062.4-.106.6-.154.613-.144-.444-.006.185-.02.208-.005.412,0,.62,0,.5,0-.349-.122.182.016.2.052.4.1.6.158a2.425,2.425,0,0,0,2.953-1.676,2.452,2.452,0,0,0-1.677-2.953Z"/><path class="e" d="M311.8,91.969c-2.218,6.584-7.244,12.6-14.068,14.6-7.226,2.117-16.014,1-21.74-4.121A24.613,24.613,0,0,1,269.2,92.157c-1.007-2.9-5.646-1.653-4.629,1.276,2.893,8.333,9.315,15.635,18.068,17.893,8.892,2.294,18.91.8,25.793-5.521a29.972,29.972,0,0,0,7.994-12.56c.988-2.934-3.646-4.193-4.629-1.276Z"/><path class="e" d="M296.422,82.939a4.81,4.81,0,0,1,1.189-3.866A3.673,3.673,0,0,1,300.127,78a3.938,3.938,0,0,1,3.3,1.545,4.836,4.836,0,0,1-.1,5.642,3.757,3.757,0,0,1-5.063.826A4.126,4.126,0,0,1,296.422,82.939Z"/><path class="e" d="M277.24,82.939a4.818,4.818,0,0,1,1.189-3.866A3.674,3.674,0,0,1,280.945,78a3.939,3.939,0,0,1,3.3,1.545,4.838,4.838,0,0,1-.1,5.642,3.757,3.757,0,0,1-5.063.826A4.126,4.126,0,0,1,277.24,82.939Z"/><path class="e" d="M302.41,109.532a46.705,46.705,0,0,1,31.659,29.443c1.546,4.511,2.52,9.187,3.754,13.786a67.358,67.358,0,0,0,4.818,12.934c1.633,3.238,3.6,6.292,5.3,9.493,1.639,3.086,3.347,6.538,2.925,10.1-.356,3.007-2.591,4.978-5.272,6.38a34.71,34.71,0,0,1-9.335,2.9,2.425,2.425,0,0,0-1.677,2.953,2.45,2.45,0,0,0,2.953,1.676c6.086-1.2,13.642-3.286,16.78-9.22,4.012-7.586-1.38-15.834-5.13-22.327a62.381,62.381,0,0,1-5.406-11.671c-1.591-4.825-2.576-9.821-3.966-14.7a52.736,52.736,0,0,0-12.475-22.241,51.364,51.364,0,0,0-23.649-14.13c-2.986-.8-4.26,3.825-1.276,4.628Z"/><path class="e" d="M288.771,161.765a121.529,121.529,0,0,0,12.659,19.068c4.483,5.445,9.667,10.635,16.237,13.478a39.28,39.28,0,0,0,12.191,2.987l-2.072-1.189a6.7,6.7,0,0,1-.766,6.628c-1.327,1.577-3.466,2.183-5.378,2.69a88.987,88.987,0,0,1-19.848,2.532c-6.643.225-13.307.191-19.953.146a96.416,96.416,0,0,1-18.742-1.462,22.217,22.217,0,0,1-7.413-2.52c-2.528-1.587-3.2-4.338-2.889-7.191l-2.4,2.4a34.1,34.1,0,0,0,19.836-8.417,58.436,58.436,0,0,0,5.529-5.719c2.972-3.415,5.809-6.952,8.464-10.618a120.529,120.529,0,0,0,8.107-12.813c1.484-2.711-2.659-5.136-4.145-2.423a125.06,125.06,0,0,1-14.229,20.6c-3.638,4.307-7.378,8.487-12.329,11.23a28.094,28.094,0,0,1-11.233,3.356,2.487,2.487,0,0,0-2.4,2.4,11.634,11.634,0,0,0,6.676,12.1c4.29,2.028,9.163,2.743,13.837,3.245a152.2,152.2,0,0,0,16.347.634c5.8,0,11.614.043,17.414-.17a103.027,103.027,0,0,0,17.358-1.906c4.278-.9,9.026-2.024,11.672-5.829a11.347,11.347,0,0,0,1.751-7.132,10.371,10.371,0,0,0-.958-3.843c-.845-1.7-2.482-1.506-4.109-1.742a30.25,30.25,0,0,1-12.573-4.682c-4.927-3.29-8.92-7.878-12.489-12.56a123.585,123.585,0,0,1-10.007-15.706c-1.483-2.711-5.629-.291-4.145,2.423Z"/><path class="e" d="M277.312,104.9a51.668,51.668,0,0,0-34.935,32.574c-1.692,4.875-2.7,9.946-4.077,14.912a59.673,59.673,0,0,1-5.023,12.667c-3.624,6.673-9.658,14.285-7.6,22.366,1.969,7.724,10.915,10.415,17.788,11.773a2.462,2.462,0,0,0,2.952-1.676,2.423,2.423,0,0,0-1.676-2.953,38.564,38.564,0,0,1-8.271-2.379,16.108,16.108,0,0,1-3.572-2.134,8.125,8.125,0,0,1-2.239-2.816c-1.327-3.063-.215-6.666,1.159-9.58,1.553-3.294,3.5-6.373,5.259-9.555a63.215,63.215,0,0,0,5.058-11.741c1.448-4.624,2.406-9.382,3.744-14.036a47.429,47.429,0,0,1,11.3-20.031,46.566,46.566,0,0,1,21.4-12.763c2.98-.8,1.715-5.434-1.276-4.628Z"/><path class="e" d="M327.46,143.5a51.8,51.8,0,0,0-10.354-10c-4.045-2.944-8.474-4.99-13.55-5.125-3.09-.082-3.088,4.718,0,4.8,4.357.116,7.985,2.148,11.41,4.677a47.646,47.646,0,0,1,9.1,9.044,2.413,2.413,0,0,0,3.394,0,2.46,2.46,0,0,0,0-3.394Z"/><path class="e" d="M256.933,146.9a47.612,47.612,0,0,1,9.1-9.044c3.425-2.529,7.054-4.561,11.411-4.677,3.083-.082,3.1-4.882,0-4.8-5.076.135-9.5,2.181-13.55,5.125a51.772,51.772,0,0,0-10.354,10,2.478,2.478,0,0,0,0,3.394,2.415,2.415,0,0,0,3.394,0Z"/><path class="g" d="M290.447,97.845c-13.007,0-25.86,7.576-30.675,16.111,7.924,5.445,21.668,14.871,30.675,21.23,8.8-6.214,22.749-15.784,30.674-21.23C317.185,106.493,304.168,97.845,290.447,97.845Z"/><path class="e" d="M290.447,95.445a41.8,41.8,0,0,0-19.621,5.183c-5.235,2.851-10.126,6.9-13.126,12.117a2.459,2.459,0,0,0,.861,3.284c10.248,7.042,20.515,14.059,30.674,21.229a2.33,2.33,0,0,0,2.423,0c10.159-7.171,20.426-14.187,30.674-21.229a2.462,2.462,0,0,0,.861-3.284c-2.722-5.051-7.616-8.935-12.529-11.715a41.87,41.87,0,0,0-20.217-5.585c-3.09-.019-3.093,4.781,0,4.8a36.792,36.792,0,0,1,17.8,4.929c4.257,2.41,8.479,5.675,10.807,9.994l.861-3.284c-10.248,7.042-20.516,14.059-30.675,21.229h2.423c-10.16-7.169-20.426-14.187-30.674-21.229l.861,3.284c2.606-4.535,6.865-7.923,11.4-10.4a36.609,36.609,0,0,1,17.2-4.527C293.534,100.226,293.541,95.426,290.447,95.445Z"/><path class="a" d="M299.351,145.493a8.125,8.125,0,0,1-6.16-2.3,7.638,7.638,0,0,1,.18-10.147,8.72,8.72,0,0,1,11.961,0,7.638,7.638,0,0,1,.18,10.147A8.126,8.126,0,0,1,299.351,145.493Z"/><path class="a" d="M281.542,145.493a8.126,8.126,0,0,1-6.161-2.3,7.638,7.638,0,0,1,.18-10.147,8.721,8.721,0,0,1,11.962,0,7.641,7.641,0,0,1,.18,10.147A8.129,8.129,0,0,1,281.542,145.493Z"/><path class="e" d="M299.351,143.093c-.327,0-.651-.019-.977-.038-.482-.029-.21-.013-.094,0-.161-.021-.323-.051-.482-.083a9.2,9.2,0,0,1-1.059-.274c-.049-.016-.516-.185-.278-.089.218.088-.317-.154-.365-.18a5.185,5.185,0,0,1-.807-.507c.275.221-.032-.05-.064-.085-.11-.116-.226-.23-.337-.346-.321-.334-.151-.183-.083-.09-.1-.132-.186-.272-.271-.412s-.159-.289-.242-.433c-.236-.41-.014.073-.155-.345a9.183,9.183,0,0,1-.279-.975c-.035-.164-.073-.337-.093-.5.042.34,0-.092,0-.133a4.313,4.313,0,0,1,.2-1.9c.048-.161.1-.323.163-.479-.114.295.04-.084.059-.12a9.694,9.694,0,0,1,.5-.869c.09-.136.184-.279.285-.407-.2.253.066-.06.093-.087.117-.119.226-.244.348-.36.007-.006.566-.455.275-.247a8.491,8.491,0,0,1,.835-.5c.045-.024.415-.188.093-.055.149-.061.306-.114.459-.163.313-.1.63-.172.949-.244.464-.1.21-.047.092-.03.243-.034.493-.049.738-.061.329-.016.66-.015.989,0,.164.007.329.021.493.034.064.006.462.077.1.012a9.259,9.259,0,0,1,.957.218c.157.046.309.1.465.149.611.2-.237-.174.321.14a4.773,4.773,0,0,1,2.276,2.358,5.306,5.306,0,0,1,.417,3.121,4.668,4.668,0,0,1-.7,1.879,3.667,3.667,0,0,1-1.049,1.136,6.467,6.467,0,0,1-3.769.966,2.4,2.4,0,1,0,0,4.8,11.962,11.962,0,0,0,5.887-1.433,9.151,9.151,0,0,0,3.913-4.853,10.068,10.068,0,0,0-3.518-11.475,11.512,11.512,0,0,0-11.53-.643c-3.915,1.986-5.7,6.6-4.924,10.774a9.279,9.279,0,0,0,3.688,5.806,11.316,11.316,0,0,0,6.484,1.824,2.4,2.4,0,0,0,0-4.8Z"/><path class="e" d="M281.542,143.093c-.327,0-.652-.019-.978-.038-.482-.029-.209-.013-.094,0-.16-.021-.323-.051-.482-.083a9.2,9.2,0,0,1-1.059-.274c-.049-.016-.516-.185-.278-.089.219.088-.316-.154-.365-.18a5.176,5.176,0,0,1-.806-.507c.274.221-.032-.05-.065-.085-.11-.116-.226-.23-.337-.346-.321-.334-.15-.183-.083-.09-.1-.132-.186-.272-.271-.412s-.159-.289-.242-.433c-.236-.41-.014.073-.155-.345a9.178,9.178,0,0,1-.278-.975c-.036-.164-.073-.337-.094-.5.042.34,0-.092,0-.133a4.328,4.328,0,0,1,.2-1.9c.049-.161.1-.323.163-.479-.114.295.04-.084.059-.12a9.7,9.7,0,0,1,.5-.869c.089-.136.183-.279.285-.407-.2.253.065-.06.092-.087.117-.119.227-.244.348-.36.007-.006.566-.455.275-.247a8.491,8.491,0,0,1,.835-.5c.045-.024.415-.188.093-.055.149-.061.307-.114.46-.163.312-.1.629-.172.948-.244.464-.1.211-.047.092-.03.243-.034.494-.049.739-.061.329-.016.659-.015.988,0,.165.007.329.021.493.034.064.006.463.077.1.012a9.142,9.142,0,0,1,.957.218c.157.046.31.1.465.149.611.2-.236-.174.321.14a4.773,4.773,0,0,1,2.276,2.358,5.306,5.306,0,0,1,.417,3.121,4.653,4.653,0,0,1-.7,1.879,3.667,3.667,0,0,1-1.049,1.136,6.465,6.465,0,0,1-3.768.966,2.4,2.4,0,1,0,0,4.8,11.964,11.964,0,0,0,5.887-1.433,9.149,9.149,0,0,0,3.912-4.853,10.068,10.068,0,0,0-3.518-11.475,11.512,11.512,0,0,0-11.53-.643c-3.915,1.986-5.7,6.6-4.923,10.774a9.274,9.274,0,0,0,3.687,5.806,11.317,11.317,0,0,0,6.485,1.824,2.4,2.4,0,1,0,0-4.8Z"/><path class="g" d="M294.7,13.34a4.183,4.183,0,0,0-4.254-4.073,4.141,4.141,0,0,0-4.3,4.029s-.513,11.483-.513,16.191c-.1-.1-6.078-5.2-6.078-5.2a4.461,4.461,0,0,0-5.967-.419,4.31,4.31,0,0,0-.285,6.355l6.8,7.911L278.6,41.991c-.847,2.166.769,4.216,3.077,4.506a85.978,85.978,0,0,0,17.541,0c2.3-.331,3.924-2.34,3.077-4.506l-1.507-3.855,6.645-7.753a4.461,4.461,0,0,0,.419-5.967,4.31,4.31,0,0,0-6.355-.285s-6.305,5.333-6.4,5.431C295.093,28.167,294.7,13.34,294.7,13.34Z"/><path class="e" d="M297.124,13.34a6.724,6.724,0,0,0-8.342-6.27c-3.266.793-4.9,3.548-5.034,6.716-.226,5.228-.484,10.467-.493,15.7l4.1-1.7c-1.46-1.34-3.016-2.586-4.523-3.872q-.777-.663-1.554-1.326a7.336,7.336,0,0,0-6.115-1.965,6.725,6.725,0,0,0-4.688,9.742c.89,1.685,2.6,3.234,3.834,4.667l4.125,4.8-.617-2.335c-.723,1.85-1.9,3.919-1.808,5.952a5.763,5.763,0,0,0,3.043,4.789c1.613.856,3.5.658,5.26.658h10.9a26.363,26.363,0,0,0,5.182-.128,5.735,5.735,0,0,0,4.253-3.764c.875-2.6-.587-5.133-1.516-7.507l-.617,2.335c2.423-2.827,5.057-5.56,7.3-8.535a6.672,6.672,0,0,0-9.227-9.489c-.653.49-1.264,1.057-1.887,1.584-1.755,1.485-3.572,2.921-5.269,4.472l4.1,1.7c-.015-5.406-.249-10.818-.392-16.222-.081-3.083-4.882-3.1-4.8,0,.143,5.4.377,10.816.392,16.222a2.428,2.428,0,0,0,4.1,1.7c1.2-1.093,2.476-2.107,3.713-3.154l2.15-1.82a3.777,3.777,0,0,1,1.447-.964,1.9,1.9,0,0,1,2.185,1.093,2.281,2.281,0,0,1-.613,2.345c-1.077,1.275-2.173,2.536-3.26,3.8l-3.322,3.877a2.4,2.4,0,0,0-.617,2.335l1.061,2.716c.265.678.937,1.737.339,2.355-.3.31-.778.252-1.2.252H282.222c-.414,0-.883.054-1.179-.252-.6-.618.073-1.677.338-2.355l1.062-2.716a2.4,2.4,0,0,0-.617-2.335l-6.464-7.517a3.271,3.271,0,0,1-.847-1.3,1.886,1.886,0,0,1,1.256-2.237c1.483-.422,2.818,1.206,3.833,2.073,1.451,1.238,2.949,2.438,4.354,3.727a2.429,2.429,0,0,0,4.1-1.7c.008-4.543.218-9.09.4-13.628a9.523,9.523,0,0,1,.245-3.2,1.945,1.945,0,0,1,3.619.682C292.456,16.417,297.257,16.434,297.124,13.34Z"/></svg>